<svg xmlns="http://www.w3.org/2000/svg" width="256" height="256" viewBox="0 0 100 100"><rect width="100" height="100" rx="20" fill="#bb4430"></rect><path fill="#f3dfa2" d="M24.24 65.89L24.24 65.89Q27.32 65.89 28.86 64.45Q30.40 63.02 30.40 59.66L30.40 59.66L30.40 28.79Q30.89 28.65 31.87 28.47Q32.85 28.30 33.83 28.30L33.83 28.30Q35.86 28.30 36.88 29.07Q37.89 29.84 37.89 31.80L37.89 31.80L37.89 60.29Q37.89 63.44 36.95 65.68Q36.00 67.92 34.39 69.36Q32.78 70.79 30.58 71.45Q28.37 72.12 25.78 72.12L25.78 72.12Q21.86 72.12 19.83 71.07Q17.80 70.02 17.80 67.92L17.80 67.92Q17.80 66.87 18.22 66.06Q18.64 65.26 18.99 64.84L18.99 64.84Q20.18 65.26 21.51 65.58Q22.84 65.89 24.24 65.89ZM80.59 39.57L80.59 39.57Q80.59 42.65 79.05 45.06Q77.51 47.48 74.15 48.88L74.15 48.88Q78.21 50.21 80.21 52.94Q82.20 55.67 82.20 59.31L82.20 59.31Q82.20 65.89 77.48 69.00Q72.75 72.12 63.93 72.12L63.93 72.12Q61.20 72.12 58.16 71.84Q55.11 71.56 52.52 70.79L52.52 70.79Q49.30 69.88 49.30 67.08L49.30 67.08L49.30 32.08Q49.30 30.89 49.97 30.22Q50.63 29.56 51.82 29.21L51.82 29.21Q54.20 28.44 57.11 28.16Q60.01 27.88 63.37 27.88L63.37 27.88Q71.56 27.88 76.08 30.75Q80.59 33.62 80.59 39.57ZM74.57 59.10L74.57 59.10Q74.57 55.88 72.19 54.02Q69.81 52.17 65.33 52.17L65.33 52.17L56.65 52.17L56.65 65.47Q58.12 65.82 60.15 66.00Q62.18 66.17 64.21 66.17L64.21 66.17Q69.18 66.17 71.88 64.45Q74.57 62.74 74.57 59.10ZM56.65 34.32L56.65 46.50L64.98 46.50Q68.97 46.50 71 44.75Q73.03 43 73.03 39.99L73.03 39.99Q73.03 33.83 63.37 33.83L63.37 33.83Q61.34 33.83 59.66 33.97Q57.98 34.11 56.65 34.32L56.65 34.32Z"></path></svg>