<svg version="1.1" id="Layer_1" xmlns="http://www.w3.org/2000/svg" xmlns:xlink="http://www.w3.org/1999/xlink" x="0px" y="0px"
	 width="100%" viewBox="0 0 333 372" enable-background="new 0 0 333 372" xml:space="preserve">
<path fill="#010000" opacity="1.000000" stroke="none" 
	d="
M1.000000,241.000000 
	C1.000000,161.077301 1.000000,81.154610 1.000000,1.000000 
	C71.687393,1.000000 142.375031,1.000000 213.843811,1.255289 
	C206.012894,8.149516 197.400833,14.788454 188.664307,21.523336 
	C221.735184,65.987518 254.488510,110.024757 287.381378,154.249588 
	C296.344360,147.575897 305.002563,141.129135 313.846558,134.544052 
	C312.732544,132.962814 311.813416,131.594254 310.830872,130.272842 
	C279.952118,88.743980 249.059235,47.225613 218.218674,5.668401 
	C217.211304,4.311011 216.727722,2.564913 216.000000,1.000003 
	C255.300613,1.000000 294.601227,1.000000 333.950928,1.000000 
	C333.950928,125.000000 333.950928,249.000000 333.950928,373.000000 
	C322.251190,373.000000 310.594269,373.000000 298.468292,372.531342 
	C297.999268,328.485382 297.999268,284.908081 297.999268,241.298874 
	C286.726868,241.298874 276.001831,241.298874 264.832947,241.298874 
	C264.832947,274.311554 264.832947,307.028748 264.832947,339.712616 
	C187.688904,339.712616 110.993919,339.712616 33.851025,339.712616 
	C33.851025,306.709869 33.851025,273.992767 33.851025,241.000000 
	C22.603008,241.000000 11.801504,241.000000 1.000000,241.000000 
M189.152405,222.358032 
	C151.789764,214.529541 114.427124,206.701050 76.756760,198.808075 
	C74.440811,209.886841 72.243256,220.399261 69.978409,231.233566 
	C124.203697,242.616882 177.974762,253.904831 232.050278,265.256714 
	C234.363510,254.156631 236.549927,243.665115 238.806900,232.835052 
	C222.149796,229.347443 206.056076,225.977783 189.152405,222.358032 
M216.573364,211.912964 
	C224.817780,215.718857 233.062210,219.524765 241.576126,223.455078 
	C246.331436,213.216919 250.852127,203.483887 255.508102,193.459610 
	C205.211472,170.044662 155.408310,146.859421 105.369171,123.564339 
	C100.576881,133.907333 96.072525,143.628891 91.449280,153.607040 
	C133.316589,173.116119 174.602478,192.354263 216.573364,211.912964 
M242.493759,128.019699 
	C213.105698,103.559273 183.717636,79.098854 154.145935,54.485580 
	C146.930557,63.147758 140.127213,71.315292 132.950943,79.930527 
	C175.405777,115.280594 217.716553,150.510712 260.236084,185.914642 
	C267.491211,177.200455 274.372498,168.935318 281.427795,160.461166 
	C268.359802,149.576431 255.695862,139.028244 242.493759,128.019699 
M73.590729,274.001099 
	C71.491501,274.001099 69.392281,274.001099 67.365723,274.001099 
	C67.365723,285.357910 67.365723,296.081390 67.365723,306.769287 
	C122.329071,306.769287 176.927551,306.769287 231.719604,306.769287 
	C231.719604,295.816986 231.719604,285.095490 231.719604,274.001099 
	C179.151962,274.001099 126.862648,274.001099 73.590729,274.001099 
z"/>
<path fill="#BBBBBB" opacity="1.000000" stroke="none" 
	d="
M1.000000,241.468658 
	C11.801504,241.000000 22.603008,241.000000 33.851025,241.000000 
	C33.851025,273.992767 33.851025,306.709869 33.851025,339.712616 
	C110.993919,339.712616 187.688904,339.712616 264.832947,339.712616 
	C264.832947,307.028748 264.832947,274.311554 264.832947,241.298874 
	C276.001831,241.298874 286.726868,241.298874 297.999268,241.298874 
	C297.999268,284.908081 297.999268,328.485382 297.999634,372.531342 
	C199.101028,373.000000 100.202042,373.000000 1.000000,373.000000 
	C1.000000,329.312897 1.000000,285.625122 1.000000,241.468658 
z"/>
<path fill="#F37F25" opacity="1.000000" stroke="none" 
	d="
M215.666656,1.000003 
	C216.727722,2.564913 217.211304,4.311011 218.218674,5.668401 
	C249.059235,47.225613 279.952118,88.743980 310.830872,130.272842 
	C311.813416,131.594254 312.732544,132.962814 313.846558,134.544052 
	C305.002563,141.129135 296.344360,147.575897 287.381378,154.249588 
	C254.488510,110.024757 221.735184,65.987518 188.664307,21.523336 
	C197.400833,14.788454 206.012894,8.149516 214.312469,1.255289 
	C214.444443,1.000000 214.888901,1.000000 215.666656,1.000003 
z"/>
<path fill="#F37F25" opacity="1.000000" stroke="none" 
	d="
M189.557373,222.483078 
	C206.056076,225.977783 222.149796,229.347443 238.806900,232.835052 
	C236.549927,243.665115 234.363510,254.156631 232.050278,265.256714 
	C177.974762,253.904831 124.203697,242.616882 69.978409,231.233566 
	C72.243256,220.399261 74.440811,209.886841 76.756760,198.808075 
	C114.427124,206.701050 151.789764,214.529541 189.557373,222.483078 
z"/>
<path fill="#F37F25" opacity="1.000000" stroke="none" 
	d="
M216.230865,211.752686 
	C174.602478,192.354263 133.316589,173.116119 91.449280,153.607040 
	C96.072525,143.628891 100.576881,133.907333 105.369171,123.564339 
	C155.408310,146.859421 205.211472,170.044662 255.508102,193.459610 
	C250.852127,203.483887 246.331436,213.216919 241.576126,223.455078 
	C233.062210,219.524765 224.817780,215.718857 216.230865,211.752686 
z"/>
<path fill="#F37F25" opacity="1.000000" stroke="none" 
	d="
M242.762848,128.249878 
	C255.695862,139.028244 268.359802,149.576431 281.427795,160.461166 
	C274.372498,168.935318 267.491211,177.200455 260.236084,185.914642 
	C217.716553,150.510712 175.405777,115.280594 132.950943,79.930527 
	C140.127213,71.315292 146.930557,63.147758 154.145935,54.485580 
	C183.717636,79.098854 213.105698,103.559273 242.762848,128.249878 
z"/>
<path fill="#F58025" opacity="1.000000" stroke="none" 
	d="
M74.082031,274.001099 
	C126.862648,274.001099 179.151962,274.001099 231.719604,274.001099 
	C231.719604,285.095490 231.719604,295.816986 231.719604,306.769287 
	C176.927551,306.769287 122.329071,306.769287 67.365723,306.769287 
	C67.365723,296.081390 67.365723,285.357910 67.365723,274.001099 
	C69.392281,274.001099 71.491501,274.001099 74.082031,274.001099 
z"/>
</svg>